HIERARCHY
ROOT Hips
{
	OFFSET 0.00000 0.00000 0.00000
	CHANNELS 6 Xposition Yposition Zposition Zrotation Yrotation Xrotation 
	JOINT LHipJoint
	{
		OFFSET 0 0 0
		CHANNELS 3 Zrotation Yrotation Xrotation
		JOINT LeftUpLeg
		{
			OFFSET 1.33213 -1.58186 0.78596
			CHANNELS 3 Zrotation Yrotation Xrotation
			JOINT LeftLeg
			{
				OFFSET 2.29717 -6.31144 0.00000
				CHANNELS 3 Zrotation Yrotation Xrotation
				JOINT LeftFoot
				{
					OFFSET 2.38430 -6.55082 0.00000
					CHANNELS 3 Zrotation Yrotation Xrotation
					JOINT LeftToeBase
					{
						OFFSET 0.11863 -0.32594 1.77568
						CHANNELS 3 Zrotation Yrotation Xrotation
						End Site
						{
							OFFSET 0.00000 -0.00000 0.91633
						}
					}
				}
			}
		}
	}
	JOINT RHipJoint
	{
		OFFSET 0 0 0
		CHANNELS 3 Zrotation Yrotation Xrotation
		JOINT RightUpLeg
		{
			OFFSET -1.41575 -1.58186 0.78596
			CHANNELS 3 Zrotation Yrotation Xrotation
			JOINT RightLeg
			{
				OFFSET -2.42012 -6.64922 0.00000
				CHANNELS 3 Zrotation Yrotation Xrotation
				JOINT RightFoot
				{
					OFFSET -2.47254 -6.79327 0.00000
					CHANNELS 3 Zrotation Yrotation Xrotation
					JOINT RightToeBase
					{
						OFFSET -0.15219 -0.41813 1.93430
						CHANNELS 3 Zrotation Yrotation Xrotation
						End Site
						{
							OFFSET -0.00000 -0.00000 0.99984
						}
					}
				}
			}
		}
	}
	JOINT LowerBack
	{
		OFFSET 0 0 0
		CHANNELS 3 Zrotation Yrotation Xrotation
		JOINT Spine
		{
			OFFSET -0.04717 2.09389 -0.14516
			CHANNELS 3 Zrotation Yrotation Xrotation
			JOINT Spine1
			{
				OFFSET 0.02825 2.09433 -0.11325
				CHANNELS 3 Zrotation Yrotation Xrotation
				JOINT Neck
				{
					OFFSET 0 0 0
					CHANNELS 3 Zrotation Yrotation Xrotation
					JOINT Neck1
					{
						OFFSET -0.01210 1.39029 0.12448
						CHANNELS 3 Zrotation Yrotation Xrotation
						JOINT Head
						{
							OFFSET 0.09492 1.38365 0.14559
							CHANNELS 3 Zrotation Yrotation Xrotation
							End Site
							{
								OFFSET 0.03402 1.40343 0.03708
							}
						}
					}
				}
				JOINT LeftShoulder
				{
					OFFSET 0 0 0
					CHANNELS 3 Zrotation Yrotation Xrotation
					JOINT LeftArm
					{
						OFFSET 2.83352 1.10671 -0.20481
						CHANNELS 3 Zrotation Yrotation Xrotation
						JOINT LeftForeArm
						{
							OFFSET 4.77195 -0.00000 -0.00000
							CHANNELS 3 Zrotation Yrotation Xrotation
							JOINT LeftHand
							{
								OFFSET 2.98444 -0.00000 0.00000
								CHANNELS 3 Zrotation Yrotation Xrotation
								JOINT LeftFingerBase
								{
									OFFSET 0 0 0
									CHANNELS 3 Zrotation Yrotation Xrotation
									JOINT LeftHandIndex1
									{
										OFFSET 0.99228 -0.00000 0.00000
										CHANNELS 3 Zrotation Yrotation Xrotation
										End Site
										{
											OFFSET 0.80001 -0.00000 0.00000
										}
									}
								}
								JOINT LThumb
								{
									OFFSET 0 0 0
									CHANNELS 3 Zrotation Yrotation Xrotation
									End Site
									{
										OFFSET 0.81222 -0.00000 0.81222
									}
								}
							}
						}
					}
				}
				JOINT RightShoulder
				{
					OFFSET 0 0 0
					CHANNELS 3 Zrotation Yrotation Xrotation
					JOINT RightArm
					{
						OFFSET -3.23760 1.11106 0.06723
						CHANNELS 3 Zrotation Yrotation Xrotation
						JOINT RightForeArm
						{
							OFFSET -4.62052 -0.00000 0.00000
							CHANNELS 3 Zrotation Yrotation Xrotation
							JOINT RightHand
							{
								OFFSET -2.95332 -0.00000 0.00000
								CHANNELS 3 Zrotation Yrotation Xrotation
								JOINT RightFingerBase
								{
									OFFSET 0 0 0
									CHANNELS 3 Zrotation Yrotation Xrotation
									JOINT RightHandIndex1
									{
										OFFSET -0.99096 -0.00000 0.00000
										CHANNELS 3 Zrotation Yrotation Xrotation
										End Site
										{
											OFFSET -0.79893 -0.00000 0.00000
										}
									}
								}
								JOINT RThumb
								{
									OFFSET 0 0 0
									CHANNELS 3 Zrotation Yrotation Xrotation
									End Site
									{
										OFFSET -0.81113 -0.00000 0.81113
									}
								}
							}
						}
					}
				}
			}
		}
	}
}
MOTION
Frames: 13
Frame Time: 0.0235294
0.00 0.00 0.00 -191.7760 -3.8064 -110.0510 0.0000 0.0000 0.0000 1.9246 -23.5983 -93.0954 33.2322 15.1332 132.0094 1.0859 -8.1382 24.2094 3.5751 -11.5725 -34.2359 0.0000 0.0000 0.0000 14.9254 17.5139 -23.9849 -11.3771 -18.1147 64.0003 -171.3382 45.5254 32.7176 -6.9705 15.3070 -48.7628 -3.1931 -0.7497 17.3605 -4.2846 -2.5370 6.0459 -2.1999 -1.5543 -3.3308 2.2791 -2.6070 3.3914 13.6595 -1.9718 -31.2082 5.0268 -4.1573 -10.4191 0.0000 0.0000 0.0000 -65.0324 -45.3831 46.8853 51.1312 -53.4417 -27.0802 -0.0000 -0.0000 30.3244 60.6659 -6.1442 -10.7835 -7.1250 0.0000 -0.0000 23.3691 18.0438 -16.4070 0.0000 0.0000 0.0000 64.8062 60.7794 10.8834 -43.1857 49.8480 -20.8426 0.0000 0.0000 29.5217 -48.1361 0.3188 -0.3557 7.1250 -0.0000 -0.0000 -16.7308 -29.2875 -6.6682
0.00 0.00 0.00 -191.6120 -3.6637 -110.1580 0.0000 0.0000 0.0000 1.2792 -23.8495 -91.1492 33.1016 15.2457 131.5110 1.1452 -8.2872 24.7956 2.1425 -9.1567 -26.2868 0.0000 0.0000 0.0000 14.5927 16.0257 -23.9020 -11.0235 -17.9466 62.8578 -171.1924 46.0784 8.6220 -10.4108 17.6345 -60.8527 -2.8018 -0.9175 17.5983 -4.0979 -2.6815 5.9269 -2.1857 -1.6144 -3.5929 2.0612 -2.5141 3.4011 13.7449 -1.8617 -30.9907 5.0686 -4.0749 -10.3372 -0.0000 -0.0000 0.0000 -65.4026 -47.0438 46.7567 53.7814 -54.4113 -29.2225 -0.0000 -0.0000 30.0163 60.4848 -5.7951 -10.1127 -7.1250 0.0000 -0.0000 23.3938 18.7333 -16.0310 -0.0000 -0.0000 0.0000 66.6403 60.4248 13.1097 -42.6749 49.5772 -20.4529 0.0000 0.0000 30.1862 -48.8742 0.7011 -0.8028 7.1250 -0.0000 -0.0000 -17.1890 -28.7092 -7.1150
0.00 0.00 0.00 -190.4740 -2.8291 -109.8450 0.0000 0.0000 0.0000 0.3745 -23.0146 -88.5498 32.8161 15.4848 130.4336 0.6106 -10.3503 21.9341 2.2580 -9.3840 -27.0040 0.0000 0.0000 0.0000 13.6679 15.0423 -24.5697 -10.5101 -17.6869 61.1799 -179.6744 26.6002 -16.7211 -10.5717 17.7190 -61.3826 -2.6722 -0.9908 17.5372 -3.7780 -2.7003 5.6188 -1.9118 -1.6037 -3.8782 2.0094 -2.2447 3.2495 13.3768 -1.6495 -30.8404 4.9098 -3.9395 -10.2677 0.0000 -0.0000 0.0000 -64.8899 -52.1828 44.6815 57.2971 -55.5456 -32.1020 -0.0000 -0.0000 28.6785 58.2197 -3.8614 -6.2034 -7.1250 0.0000 -0.0000 22.7220 22.7218 -13.2265 0.0000 -0.0000 0.0000 70.1091 60.0553 17.6645 -41.6817 49.0353 -19.6999 0.0000 0.0000 30.7386 -50.1101 1.4837 -1.7744 7.1250 -0.0000 -0.0000 -17.8952 -27.4969 -7.9774
0.00 0.00 0.00 -188.6060 -1.6648 -108.6990 0.0000 0.0000 0.0000 -0.4393 -22.3564 -85.8809 31.8917 16.1983 127.0482 -0.2197 -13.6106 16.4728 2.0934 -9.0579 -25.9765 0.0000 0.0000 0.0000 11.9292 14.5919 -27.8711 -10.5452 -17.7052 61.2956 179.8503 2.8774 -6.8808 -1.0209 6.4279 -18.0312 -3.0311 -1.1785 17.3391 -2.7353 -2.8466 4.9012 -0.5691 -1.6222 -4.4667 0.6511 -1.4132 2.6423 13.1256 -0.8909 -30.5562 4.9624 -3.4464 -10.0616 0.0000 0.0000 0.0000 -62.0212 -61.9870 36.6966 53.1933 -54.2049 -28.7448 -0.0000 -0.0000 28.6002 52.8683 -0.2167 -0.2863 -7.1250 0.0000 -0.0000 20.3004 29.2776 -8.2583 0.0000 0.0000 0.0000 73.8651 59.9149 24.7599 -39.3402 47.6741 -17.9499 0.0000 0.0000 31.7806 -52.4593 2.4238 -3.1500 7.1250 -0.0000 -0.0000 -19.3126 -25.8869 -9.4599
0.00 0.00 0.00 -185.0930 -0.2908 -110.1590 0.0000 0.0000 0.0000 -3.8635 -20.8488 -77.1863 29.1243 17.8737 117.6228 -0.8729 -16.5689 9.5608 2.3818 -9.6197 -27.7538 0.0000 0.0000 0.0000 11.0531 13.8794 -31.2813 -11.9348 -18.3630 65.7821 179.8767 -4.7440 6.6109 -1.3960 -7.4746 21.1292 -3.0542 -0.7583 20.0541 -1.3573 -2.3551 4.8656 0.8859 -1.3625 -5.8827 -1.1795 -0.6508 1.5889 12.5657 -0.3634 -29.9504 4.9742 -2.9396 -9.6409 0.0000 0.0000 0.0000 -44.9211 -74.9002 12.9673 38.0226 -46.8537 -16.9821 -0.0000 -0.0000 26.1989 45.0913 1.6248 1.6293 -7.1250 0.0000 -0.0000 14.8137 32.0371 -4.8415 0.0000 0.0000 0.0000 76.6397 60.1770 32.0732 -35.7547 45.3436 -15.3478 0.0000 0.0000 31.8129 -54.6230 3.8028 -5.3362 7.1250 -0.0000 -0.0000 -20.3714 -23.4446 -11.2912
0.00 0.00 0.00 -181.1930 0.2859 -111.3300 0.0000 0.0000 0.0000 -6.3250 -16.6740 -69.7430 26.5637 18.9341 109.5247 -0.6311 -14.4611 9.6291 2.9298 -10.5806 -30.8781 0.0000 0.0000 0.0000 11.2754 15.6779 -38.9660 -15.8487 -19.5817 77.7805 -179.8929 -5.8156 -2.6735 -0.2123 -2.9661 8.1844 -2.9965 -0.3226 22.8015 0.1069 -1.8296 4.9540 2.3826 -1.1016 -7.1902 -3.2961 -3.2231 0.8853 14.0043 0.9765 -29.0177 5.2016 0.9093 -9.2168 0.0000 0.0000 0.0000 -0.1409 -77.5161 -34.2788 28.1377 -39.2427 -10.2107 -0.0000 -0.0000 24.9962 41.3589 2.3726 2.0872 -7.1250 0.0000 -0.0000 11.9620 32.9683 -3.5939 0.0000 0.0000 0.0000 79.7206 60.8386 39.9586 -31.7115 42.3159 -12.5462 0.0000 0.0000 33.4192 -57.1421 4.3993 -6.7729 7.1250 -0.0000 -0.0000 -21.8301 -22.0166 -13.0060
0.00 0.00 0.00 -178.6430 0.5386 -107.9680 0.0000 0.0000 0.0000 -6.2371 -14.7411 -69.2639 24.4520 19.5180 103.1181 -0.5684 -13.4459 7.6432 3.3913 -11.3031 -33.3089 0.0000 0.0000 0.0000 8.5922 19.2372 -56.2375 -21.9744 -19.9063 95.7814 -179.6973 -10.1350 -6.8691 -0.0693 -1.6990 4.6744 -3.3344 -0.9686 19.5655 1.3721 -1.3286 4.4354 3.6746 -0.3972 -6.0163 -4.8922 -2.6719 0.6016 13.6573 1.4113 -28.8023 5.3311 1.2691 -9.1147 0.0000 0.0000 0.0000 21.0691 -74.6695 -57.5263 23.8082 -34.9608 -7.5964 -0.0000 -0.0000 26.2028 39.3523 2.0361 1.6688 -7.1250 0.0000 -0.0000 10.3001 32.4933 -3.1992 0.0000 0.0000 0.0000 83.9092 61.0996 46.0812 -28.6602 39.7170 -10.5429 0.0000 0.0000 34.5376 -59.6101 5.9203 -9.9750 7.1250 -0.0000 -0.0000 -22.8220 -18.7760 -15.5408
0.00 0.00 0.00 -179.4940 1.2412 -107.6280 0.0000 0.0000 0.0000 -8.6750 -16.1122 -64.4172 22.4205 19.8589 97.0931 -0.4502 -12.6414 9.5486 4.8732 -13.2396 -40.2720 0.0000 0.0000 0.0000 4.2169 17.7608 -71.8278 -28.3147 -18.2544 115.0121 -179.7001 -13.9221 -15.7962 -0.2830 -3.4211 9.4534 -4.0738 -1.6541 18.2626 1.8972 -2.3040 4.6758 4.8319 -0.9083 -4.9227 -6.0115 -2.4365 0.5935 13.6663 1.4844 -28.4325 5.5280 1.3514 -8.9804 -0.0000 -0.0000 0.0000 29.1111 -73.1908 -67.0051 19.0335 -29.4603 -5.0473 -0.0000 -0.0000 26.7596 40.4401 0.8006 0.6823 -7.1250 0.0000 -0.0000 11.0019 30.9203 -3.8481 -0.0000 -0.0000 0.0000 88.4643 60.0763 50.4138 -26.4479 37.6476 -9.1599 0.0000 0.0000 36.2807 -63.3991 8.8167 -17.0177 7.1250 -0.0000 -0.0000 -23.9220 -11.9460 -20.3593
0.00 0.00 0.00 -181.4090 0.5818 -110.7550 0.0000 0.0000 0.0000 -11.5989 -17.5444 -54.3542 20.0257 20.0000 90.0752 -0.4124 -12.2147 9.4828 5.6597 -14.0903 -43.6004 0.0000 0.0000 0.0000 2.4717 12.3832 -82.1170 -32.8590 -15.4495 130.5945 178.7608 -14.4080 -30.5866 -0.5315 -4.6716 12.9743 -3.6426 -1.5913 20.0800 2.7856 -3.4580 5.9834 5.8917 -2.0173 -4.3406 -7.6553 -2.4659 -0.3323 13.9104 1.3798 -28.2791 5.9075 1.4887 -8.7259 -0.0000 -0.0000 0.0000 20.3648 -74.8747 -61.3721 18.5325 -28.8337 -4.8033 -0.0000 -0.0000 28.8301 46.0538 0.5941 0.6163 -7.1250 0.0000 -0.0000 15.3500 30.6169 -5.5719 -0.0000 -0.0000 0.0000 87.5218 57.7377 51.1465 -26.6435 37.8371 -9.2796 0.0000 0.0000 37.0129 -64.9573 10.3767 -21.0825 7.1250 -0.0000 -0.0000 -24.1973 -8.0767 -22.7481
0.00 0.00 0.00 -188.6130 -2.8484 -116.5130 0.0000 0.0000 0.0000 -17.9149 -22.0150 -34.2284 15.8153 19.5749 77.6810 -0.2360 -9.6589 8.2856 7.2941 -15.5746 -49.9780 0.0000 0.0000 0.0000 1.6924 -8.8579 -95.6236 -36.3156 -11.7282 145.2230 177.1794 -17.6082 -41.6273 -0.3902 -4.0113 11.1085 -3.2134 -2.9900 21.8952 4.1675 -5.6582 7.9274 7.6810 -3.3677 -2.7640 -9.9626 -2.5356 1.5581 13.4792 0.5985 -28.5055 6.2723 1.2184 -9.0525 -0.0000 -0.0000 0.0000 -24.7076 -78.5103 -17.7094 20.8688 -31.6749 -5.9809 -0.0000 -0.0000 27.2192 54.5100 -0.6509 -0.9127 -7.1250 0.0000 -0.0000 21.3566 28.5166 -9.1655 -0.0000 -0.0000 0.0000 81.8284 50.0201 45.8668 -26.2655 37.4697 -9.0487 0.0000 0.0000 38.5517 -69.9436 13.9293 -33.3995 7.1250 -0.0000 -0.0000 -25.5990 3.0278 -30.0224
0.00 0.00 0.00 -191.4290 -6.9989 -117.3300 0.0000 0.0000 0.0000 -18.2729 -23.1821 -23.8630 12.6582 18.6553 68.0605 0.0540 -5.0743 8.7889 7.8430 -16.0025 -51.9952 0.0000 0.0000 0.0000 0.0557 -7.7465 -90.3577 -35.6249 -12.6435 141.9517 -179.7482 -23.3879 -31.3198 -1.5458 -7.8479 22.2531 -1.4469 -4.0979 20.8767 5.2816 -6.7314 8.0457 7.9905 -3.9178 -2.0023 -11.0130 -2.8362 2.0889 13.6293 -0.0327 -28.4471 6.5698 0.9685 -9.0320 0.0000 -0.0000 0.0000 -61.9034 -74.9300 18.7787 23.1519 -34.2545 -7.2236 -0.0000 -0.0000 29.3976 58.4480 -1.7646 -2.8709 -7.1250 0.0000 -0.0000 23.7022 26.3308 -11.6999 0.0000 -0.0000 0.0000 79.1230 43.1680 43.9911 -25.4987 36.7094 -8.5862 0.0000 0.0000 39.0211 -72.7925 14.9714 -39.8336 7.1250 -0.0000 -0.0000 -26.8022 8.4345 -34.1291
0.00 0.00 0.00 -186.7270 -5.3984 -110.7540 0.0000 0.0000 0.0000 -15.7845 -15.7417 -24.9665 8.5798 16.5296 54.6252 0.8095 6.5619 16.0545 8.7976 -16.6757 -55.3873 0.0000 0.0000 0.0000 5.0405 12.3166 -84.7539 -33.8465 -14.5755 134.4053 178.4941 -8.3566 -27.5325 -0.5641 -4.8104 13.3685 -1.2666 -1.0627 17.7759 3.6275 -2.1392 5.7803 5.0291 -1.3491 -3.5651 -11.3901 -4.2590 1.9924 13.4165 -2.0008 -29.0821 6.6829 0.2410 -8.9431 0.0000 -0.0000 0.0000 -87.1126 -63.9126 46.3735 28.1614 -39.2644 -10.2257 -0.0000 -0.0000 32.6376 62.9990 -6.0000 -11.5928 -7.1250 0.0000 -0.0000 24.7776 17.4861 -17.9581 0.0000 -0.0000 0.0000 83.6659 22.0070 36.3036 -56.2603 55.2282 -31.2487 0.0000 0.0000 32.6782 -65.9058 12.9664 -26.6450 7.1250 -0.0000 -0.0000 -23.8479 -2.5536 -25.0731
0.00 0.00 0.00 -189.7830 -5.8670 -107.9700 0.0000 0.0000 0.0000 -15.0480 -14.0531 -30.3921 9.0593 16.8457 56.2950 1.4201 4.3811 21.5217 10.6758 -17.7728 -61.7243 0.0000 0.0000 0.0000 5.8065 10.5180 -81.0487 -31.8926 -16.1977 127.0513 178.2207 -7.6057 -28.9067 -0.6317 -5.0855 14.1525 -1.6002 -1.1728 17.6142 3.4011 -2.2309 5.2717 5.0027 -1.3354 -4.0104 -9.5378 -1.9614 3.2143 11.1902 -3.2093 -30.1997 6.1802 -2.9936 -9.6405 0.0000 -0.0000 0.0000 -91.4728 -61.7440 51.6608 27.4540 -38.6087 -9.7811 -0.0000 -0.0000 34.5505 64.0199 -7.8938 -15.7396 -7.1250 0.0000 -0.0000 24.5957 13.3825 -20.2373 0.0000 -0.0000 0.0000 74.1142 43.5854 26.9552 -70.0484 58.4411 -42.8118 0.0000 0.0000 34.3301 -58.5497 9.4331 -15.0015 7.1250 -0.0000 -0.0000 -21.0017 -13.0913 -16.9013
